<?xml version="1.0" encoding="utf-8"?>
<!-- Generator: Adobe Illustrator 16.0.3, SVG Export Plug-In . SVG Version: 6.00 Build 0)  -->
<!DOCTYPE svg PUBLIC "-//W3C//DTD SVG 1.1//EN" "http://www.w3.org/Graphics/SVG/1.1/DTD/svg11.dtd">
<svg version="1.1" id="Layer_1" xmlns="http://www.w3.org/2000/svg" xmlns:xlink="http://www.w3.org/1999/xlink" x="0px" y="0px"
	 width="188.667px" height="188.677px" viewBox="0 0 188.667 188.677" enable-background="new 0 0 188.667 188.677"
	 xml:space="preserve">
<rect stroke="#000000" stroke-width="0.25" stroke-miterlimit="10" width="188.667" height="188.677"/>
<g>
	<path fill="#F26522" d="M56.929,13.534c0.147-0.031,0.292-0.063,0.434-0.094c0.143-0.031,0.275-0.076,0.398-0.135
		c0.123-0.059,0.232-0.133,0.331-0.224c0.098-0.09,0.175-0.214,0.232-0.371c-0.261-0.023-0.451-0.12-0.569-0.289
		c-0.119-0.168-0.178-0.335-0.178-0.5c0-0.314,0.092-0.551,0.275-0.712c0.184-0.161,0.394-0.241,0.63-0.241
		c0.302,0,0.53,0.104,0.685,0.312c0.155,0.208,0.233,0.461,0.233,0.759c0,0.228-0.047,0.465-0.141,0.712
		c-0.094,0.247-0.237,0.479-0.429,0.694c-0.192,0.216-0.43,0.4-0.716,0.553c-0.286,0.153-0.624,0.253-1.016,0.3L56.929,13.534z"/>
	<path fill="#F26522" d="M69.057,9.156h2.692v0.918h-2.692V9.156z"/>
	<path fill="#F26522" d="M85.248,8.908c-0.024,0.134-0.067,0.287-0.128,0.459c-0.061,0.173-0.151,0.334-0.27,0.483
		s-0.267,0.274-0.446,0.376c-0.18,0.102-0.396,0.153-0.649,0.153c-0.22,0-0.422-0.041-0.605-0.124
		c-0.184-0.082-0.361-0.174-0.532-0.276c-0.196-0.11-0.384-0.22-0.563-0.33c-0.179-0.11-0.375-0.165-0.587-0.165
		c-0.115,0-0.213,0.026-0.294,0.077c-0.082,0.051-0.149,0.116-0.202,0.194c-0.053,0.079-0.1,0.167-0.141,0.265
		c-0.041,0.098-0.073,0.19-0.098,0.277l-0.698-0.188c0.024-0.133,0.069-0.286,0.135-0.459c0.065-0.172,0.155-0.333,0.269-0.482
		s0.259-0.275,0.435-0.377c0.175-0.102,0.394-0.153,0.655-0.153c0.22,0,0.422,0.041,0.605,0.124
		c0.184,0.083,0.361,0.175,0.533,0.277c0.195,0.11,0.385,0.22,0.569,0.329c0.184,0.11,0.377,0.165,0.581,0.165
		c0.115,0,0.212-0.025,0.294-0.077c0.082-0.051,0.149-0.116,0.202-0.194c0.053-0.078,0.1-0.167,0.141-0.265
		c0.041-0.098,0.074-0.19,0.098-0.276L85.248,8.908z"/>
	<path fill="#F26522" d="M97.485,8.908c-0.024,0.134-0.067,0.287-0.128,0.459c-0.061,0.173-0.151,0.334-0.269,0.483
		c-0.119,0.149-0.268,0.274-0.447,0.376c-0.18,0.102-0.396,0.153-0.649,0.153c-0.22,0-0.422-0.041-0.605-0.124
		c-0.184-0.082-0.361-0.174-0.532-0.276c-0.196-0.11-0.384-0.22-0.563-0.33c-0.179-0.11-0.375-0.165-0.587-0.165
		c-0.115,0-0.213,0.026-0.294,0.077c-0.082,0.051-0.149,0.116-0.202,0.194c-0.053,0.079-0.1,0.167-0.14,0.265
		c-0.041,0.098-0.074,0.19-0.098,0.277l-0.698-0.188c0.024-0.133,0.069-0.286,0.135-0.459c0.065-0.172,0.155-0.333,0.269-0.482
		c0.115-0.149,0.259-0.275,0.435-0.377c0.175-0.102,0.394-0.153,0.655-0.153c0.22,0,0.422,0.041,0.605,0.124
		c0.184,0.083,0.361,0.175,0.533,0.277c0.195,0.11,0.385,0.22,0.569,0.329c0.184,0.11,0.377,0.165,0.581,0.165
		c0.115,0,0.212-0.025,0.294-0.077c0.082-0.051,0.149-0.116,0.202-0.194c0.053-0.078,0.1-0.167,0.141-0.265
		c0.041-0.098,0.074-0.19,0.098-0.276L97.485,8.908z"/>
	<path fill="#F26522" d="M109.724,8.908c-0.024,0.134-0.067,0.287-0.129,0.459c-0.061,0.173-0.151,0.334-0.269,0.483
		c-0.119,0.149-0.268,0.274-0.447,0.376c-0.18,0.102-0.396,0.153-0.649,0.153c-0.22,0-0.422-0.041-0.605-0.124
		c-0.184-0.082-0.361-0.174-0.532-0.276c-0.196-0.11-0.383-0.22-0.563-0.33c-0.179-0.11-0.375-0.165-0.587-0.165
		c-0.115,0-0.212,0.026-0.294,0.077c-0.082,0.051-0.149,0.116-0.202,0.194c-0.053,0.079-0.1,0.167-0.14,0.265
		c-0.041,0.098-0.074,0.19-0.098,0.277l-0.698-0.188c0.024-0.133,0.069-0.286,0.135-0.459c0.065-0.172,0.155-0.333,0.269-0.482
		c0.115-0.149,0.259-0.275,0.435-0.377c0.175-0.102,0.394-0.153,0.655-0.153c0.22,0,0.422,0.041,0.606,0.124
		c0.184,0.083,0.361,0.175,0.532,0.277c0.196,0.11,0.385,0.22,0.569,0.329c0.184,0.11,0.377,0.165,0.582,0.165
		c0.114,0,0.212-0.025,0.293-0.077c0.082-0.051,0.149-0.116,0.202-0.194c0.053-0.078,0.1-0.167,0.141-0.265s0.074-0.19,0.098-0.276
		L109.724,8.908z"/>
	<path fill="#F26522" d="M118.008,9.156h2.692v0.918h-2.692V9.156z"/>
	<path fill="#F26522" d="M130.356,13.534c0.147-0.031,0.291-0.063,0.434-0.094s0.275-0.076,0.398-0.135
		c0.123-0.059,0.232-0.133,0.331-0.224c0.098-0.09,0.175-0.214,0.232-0.371c-0.261-0.023-0.451-0.12-0.568-0.289
		c-0.119-0.168-0.178-0.335-0.178-0.5c0-0.314,0.092-0.551,0.275-0.712s0.394-0.241,0.63-0.241c0.302,0,0.53,0.104,0.685,0.312
		c0.155,0.208,0.232,0.461,0.232,0.759c0,0.228-0.047,0.465-0.14,0.712c-0.094,0.247-0.237,0.479-0.429,0.694
		c-0.192,0.216-0.43,0.4-0.716,0.553c-0.286,0.153-0.625,0.253-1.016,0.3L130.356,13.534z"/>
	<path fill="#F26522" d="M32.454,30.207c0.147-0.031,0.291-0.063,0.434-0.094s0.275-0.076,0.398-0.135
		c0.123-0.059,0.232-0.133,0.331-0.224c0.098-0.09,0.175-0.214,0.232-0.371c-0.261-0.023-0.451-0.12-0.568-0.289
		c-0.119-0.168-0.178-0.335-0.178-0.5c0-0.314,0.092-0.551,0.275-0.712s0.394-0.241,0.63-0.241c0.302,0,0.53,0.104,0.685,0.312
		c0.155,0.208,0.232,0.461,0.232,0.759c0,0.228-0.047,0.465-0.14,0.712c-0.094,0.247-0.237,0.479-0.429,0.694
		c-0.192,0.216-0.431,0.4-0.716,0.553c-0.286,0.153-0.625,0.253-1.016,0.3L32.454,30.207z"/>
	<path fill="#F26522" d="M46.454,21.286v0.53c0,0.173-0.006,0.371-0.019,0.594s-0.029,0.456-0.049,0.695s-0.042,0.475-0.067,0.706
		c-0.024,0.231-0.053,0.438-0.086,0.618h-0.624c-0.033-0.18-0.062-0.386-0.086-0.618s-0.047-0.467-0.067-0.706
		c-0.02-0.239-0.037-0.473-0.049-0.701c-0.012-0.228-0.018-0.427-0.018-0.6v-0.518H46.454z"/>
	<path fill="#F26522" d="M69.216,29.277h-0.942c-0.074-0.479-0.137-1.006-0.19-1.583c-0.053-0.577-0.102-1.179-0.147-1.807
		c-0.045-0.627-0.083-1.271-0.116-1.93s-0.061-1.314-0.086-1.965h0.979l0.135,6.084l1.101-3.319h0.881l1.126,3.319l0.135-6.084
		h0.979c-0.025,0.659-0.056,1.318-0.092,1.977c-0.036,0.659-0.079,1.301-0.128,1.924c-0.049,0.624-0.102,1.222-0.159,1.795
		c-0.058,0.573-0.119,1.103-0.184,1.589h-0.93l-1.187-3.625L69.216,29.277z"/>
	<path fill="#F26522" d="M74.576,29.277v-7.285h4.247v0.824H75.58v2.236h2.839v0.824H75.58v2.578h3.512v0.824H74.576z"/>
	<path fill="#F26522" d="M82.078,29.336c-0.123,0-0.265-0.004-0.429-0.012c-0.163-0.008-0.326-0.018-0.489-0.029
		c-0.164-0.012-0.326-0.029-0.49-0.053c-0.163-0.024-0.306-0.051-0.428-0.083v-7.062c0.123-0.031,0.263-0.059,0.422-0.083
		c0.159-0.023,0.322-0.041,0.489-0.053c0.167-0.012,0.331-0.021,0.49-0.029c0.159-0.008,0.304-0.012,0.435-0.012
		c0.375,0,0.726,0.031,1.052,0.094s0.61,0.169,0.851,0.318c0.24,0.149,0.428,0.345,0.563,0.588s0.202,0.545,0.202,0.906
		c0,0.173-0.029,0.339-0.085,0.5c-0.057,0.161-0.137,0.312-0.239,0.453c-0.102,0.142-0.22,0.265-0.355,0.371
		c-0.134,0.106-0.279,0.186-0.434,0.241c0.416,0.11,0.765,0.312,1.046,0.606c0.281,0.294,0.422,0.677,0.422,1.147
		c0,0.722-0.241,1.268-0.722,1.636C83.897,29.152,83.13,29.336,82.078,29.336z M81.246,25.076h0.796c0.204,0,0.408-0.02,0.612-0.059
		c0.204-0.039,0.387-0.102,0.55-0.188s0.294-0.204,0.392-0.353c0.098-0.149,0.146-0.337,0.146-0.565
		c0-0.212-0.044-0.393-0.134-0.542c-0.09-0.149-0.208-0.271-0.355-0.365c-0.147-0.094-0.316-0.161-0.508-0.2
		c-0.192-0.039-0.394-0.059-0.606-0.059c-0.212,0-0.397,0.002-0.557,0.006c-0.159,0.004-0.271,0.014-0.336,0.03V25.076z
		 M81.246,25.876v2.601c0.017,0.008,0.108,0.018,0.275,0.029s0.377,0.018,0.63,0.018s0.496-0.02,0.728-0.059
		s0.439-0.112,0.618-0.218c0.18-0.106,0.325-0.245,0.435-0.418c0.11-0.172,0.166-0.396,0.166-0.671c0-0.243-0.052-0.447-0.154-0.612
		c-0.102-0.165-0.236-0.296-0.404-0.395c-0.167-0.098-0.361-0.168-0.581-0.211c-0.22-0.043-0.449-0.065-0.685-0.065H81.246z"/>
	<path fill="#F26522" d="M96.959,23.852c0,0.251-0.052,0.494-0.153,0.73c-0.102,0.235-0.237,0.467-0.404,0.694
		s-0.357,0.451-0.569,0.671c-0.212,0.22-0.428,0.435-0.649,0.647c-0.122,0.118-0.265,0.259-0.428,0.424
		c-0.164,0.165-0.318,0.333-0.465,0.506c-0.147,0.172-0.269,0.341-0.367,0.506s-0.147,0.306-0.147,0.424h3.488v0.824h-4.589
		c-0.008-0.039-0.012-0.081-0.012-0.124s0-0.084,0-0.124c0-0.33,0.057-0.636,0.171-0.918c0.114-0.283,0.261-0.549,0.441-0.8
		c0.179-0.251,0.381-0.489,0.605-0.712c0.224-0.224,0.447-0.441,0.667-0.653c0.18-0.173,0.353-0.341,0.52-0.506
		c0.167-0.165,0.314-0.33,0.441-0.494c0.126-0.165,0.228-0.335,0.306-0.512c0.078-0.176,0.117-0.359,0.117-0.547
		c0-0.211-0.035-0.392-0.104-0.541s-0.163-0.273-0.282-0.371c-0.118-0.098-0.255-0.17-0.41-0.218
		c-0.155-0.047-0.322-0.07-0.502-0.07c-0.212,0-0.406,0.027-0.581,0.083c-0.175,0.055-0.33,0.122-0.465,0.2
		c-0.134,0.079-0.251,0.155-0.349,0.229c-0.098,0.075-0.171,0.136-0.22,0.183l-0.501-0.683c0.065-0.071,0.163-0.157,0.293-0.259
		s0.288-0.198,0.471-0.289c0.183-0.09,0.39-0.167,0.618-0.229c0.228-0.063,0.473-0.094,0.734-0.094c0.791,0,1.377,0.175,1.756,0.524
		S96.959,23.2,96.959,23.852z"/>
	<path fill="#F26522" d="M107.129,25.617l1.175-3.625h0.942c0.163,1.146,0.279,2.318,0.349,3.519c0.069,1.2,0.133,2.456,0.19,3.766
		h-0.979c-0.008-0.424-0.017-0.883-0.024-1.377c-0.008-0.495-0.019-1.004-0.03-1.53c-0.013-0.525-0.024-1.059-0.037-1.601
		c-0.012-0.542-0.026-1.067-0.042-1.577l-1.102,3.319h-0.881l-1.126-3.319c-0.008,0.51-0.019,1.034-0.031,1.571
		c-0.012,0.538-0.024,1.071-0.037,1.601c-0.012,0.53-0.024,1.042-0.037,1.536c-0.013,0.494-0.022,0.953-0.03,1.377h-0.979
		c0.025-0.596,0.053-1.208,0.085-1.836c0.033-0.628,0.072-1.251,0.117-1.872c0.044-0.62,0.098-1.231,0.159-1.836
		c0.061-0.604,0.128-1.185,0.202-1.742h0.93L107.129,25.617z"/>
	<path fill="#F26522" d="M113.052,21.921c0.449,0,0.843,0.055,1.181,0.165c0.339,0.11,0.62,0.265,0.845,0.465
		c0.224,0.2,0.391,0.438,0.501,0.712c0.11,0.275,0.165,0.581,0.165,0.918c0,0.761-0.232,1.348-0.698,1.76
		c-0.465,0.412-1.162,0.618-2.092,0.618h-0.881v2.719h-1.003v-7.179c0.147-0.031,0.308-0.059,0.483-0.083
		c0.175-0.023,0.351-0.043,0.526-0.059c0.175-0.016,0.347-0.025,0.514-0.029C112.76,21.923,112.914,21.921,113.052,21.921z
		 M113.125,22.757c-0.212,0-0.417,0.002-0.612,0.006c-0.196,0.004-0.343,0.014-0.441,0.03v2.942h0.832
		c0.612,0,1.067-0.118,1.365-0.353c0.297-0.235,0.446-0.624,0.446-1.166C114.716,23.244,114.186,22.757,113.125,22.757z"/>
	<path fill="#F26522" d="M118.889,28.571c0.645,0,1.104-0.124,1.377-0.371c0.273-0.247,0.41-0.578,0.41-0.994
		c0-0.267-0.058-0.49-0.171-0.671c-0.114-0.181-0.265-0.326-0.453-0.436c-0.188-0.11-0.404-0.188-0.649-0.235
		c-0.245-0.047-0.501-0.071-0.771-0.071h-0.257v-0.789h0.355c0.179,0,0.365-0.018,0.557-0.053c0.192-0.035,0.367-0.098,0.526-0.188
		c0.159-0.09,0.288-0.213,0.386-0.371c0.097-0.157,0.146-0.357,0.146-0.6c0-0.4-0.128-0.685-0.385-0.854
		c-0.257-0.168-0.557-0.253-0.9-0.253c-0.351,0-0.648,0.049-0.893,0.147s-0.449,0.198-0.612,0.3l-0.391-0.742
		c0.171-0.118,0.43-0.241,0.777-0.371c0.347-0.129,0.732-0.194,1.157-0.194c0.399,0,0.742,0.047,1.028,0.141
		c0.286,0.094,0.52,0.228,0.704,0.4c0.184,0.173,0.32,0.375,0.41,0.606c0.09,0.232,0.134,0.485,0.134,0.759
		c0,0.385-0.104,0.71-0.312,0.977c-0.208,0.267-0.475,0.471-0.801,0.612c0.392,0.11,0.73,0.324,1.015,0.642
		c0.286,0.318,0.429,0.74,0.429,1.265c0,0.314-0.055,0.606-0.165,0.877c-0.11,0.271-0.277,0.504-0.502,0.7s-0.514,0.349-0.869,0.459
		c-0.354,0.11-0.777,0.165-1.266,0.165c-0.188,0-0.381-0.014-0.582-0.041c-0.2-0.028-0.386-0.063-0.557-0.106
		c-0.171-0.043-0.324-0.086-0.459-0.129s-0.231-0.077-0.288-0.1l0.196-0.835c0.13,0.063,0.338,0.137,0.625,0.224
		C118.123,28.528,118.474,28.571,118.889,28.571z"/>
	<path fill="#F26522" d="M144.356,21.286v0.53c0,0.173-0.006,0.371-0.019,0.594s-0.029,0.456-0.049,0.695s-0.042,0.475-0.067,0.706
		c-0.024,0.231-0.053,0.438-0.086,0.618h-0.624c-0.033-0.18-0.062-0.386-0.086-0.618s-0.047-0.467-0.067-0.706
		c-0.02-0.239-0.037-0.473-0.048-0.701c-0.013-0.228-0.019-0.427-0.019-0.6v-0.518H144.356z"/>
	<path fill="#F26522" d="M154.832,30.207c0.147-0.031,0.292-0.063,0.434-0.094c0.143-0.031,0.275-0.076,0.398-0.135
		c0.123-0.059,0.233-0.133,0.331-0.224s0.175-0.214,0.232-0.371c-0.261-0.023-0.451-0.12-0.569-0.289
		c-0.119-0.168-0.178-0.335-0.178-0.5c0-0.314,0.092-0.551,0.275-0.712c0.184-0.161,0.394-0.241,0.63-0.241
		c0.302,0,0.53,0.104,0.685,0.312c0.155,0.208,0.233,0.461,0.233,0.759c0,0.228-0.047,0.465-0.141,0.712
		c-0.094,0.247-0.237,0.479-0.429,0.694s-0.43,0.4-0.716,0.553c-0.286,0.153-0.624,0.253-1.016,0.3L154.832,30.207z"/>
	<path fill="#F26522" d="M20.216,46.88c0.147-0.031,0.291-0.063,0.434-0.094s0.275-0.076,0.398-0.135
		c0.123-0.059,0.232-0.133,0.331-0.224c0.098-0.09,0.175-0.214,0.232-0.371c-0.261-0.023-0.451-0.12-0.568-0.289
		c-0.119-0.168-0.178-0.335-0.178-0.5c0-0.314,0.092-0.551,0.275-0.712c0.184-0.161,0.394-0.241,0.631-0.241
		c0.302,0,0.53,0.104,0.685,0.312c0.155,0.208,0.232,0.461,0.232,0.759c0,0.228-0.047,0.465-0.141,0.712s-0.237,0.479-0.429,0.694
		c-0.191,0.216-0.43,0.4-0.715,0.553c-0.286,0.153-0.625,0.253-1.016,0.3L20.216,46.88z"/>
	<path fill="#F26522" d="M167.07,46.88c0.147-0.031,0.292-0.063,0.435-0.094c0.143-0.031,0.275-0.076,0.397-0.135
		c0.123-0.059,0.233-0.133,0.331-0.224c0.097-0.09,0.175-0.214,0.232-0.371c-0.261-0.023-0.451-0.12-0.569-0.289
		c-0.119-0.168-0.178-0.335-0.178-0.5c0-0.314,0.092-0.551,0.275-0.712c0.184-0.161,0.394-0.241,0.63-0.241
		c0.302,0,0.53,0.104,0.685,0.312c0.155,0.208,0.233,0.461,0.233,0.759c0,0.228-0.047,0.465-0.141,0.712
		c-0.094,0.247-0.237,0.479-0.429,0.694s-0.43,0.4-0.715,0.553c-0.286,0.153-0.625,0.253-1.016,0.3L167.07,46.88z"/>
	<path fill="#F26522" d="M14.097,63.554c0.147-0.031,0.292-0.063,0.434-0.094c0.143-0.031,0.275-0.076,0.398-0.135
		c0.123-0.059,0.232-0.133,0.331-0.224c0.098-0.09,0.175-0.214,0.232-0.371c-0.261-0.023-0.451-0.12-0.569-0.289
		c-0.119-0.168-0.178-0.335-0.178-0.5c0-0.314,0.092-0.551,0.275-0.712c0.184-0.161,0.394-0.241,0.63-0.241
		c0.302,0,0.53,0.104,0.685,0.312c0.155,0.208,0.233,0.461,0.233,0.759c0,0.228-0.047,0.465-0.141,0.712
		c-0.094,0.247-0.237,0.479-0.429,0.694s-0.43,0.4-0.716,0.553c-0.286,0.153-0.624,0.253-1.016,0.3L14.097,63.554z"/>
	<path fill="#FFFFFF" d="M76.057,54.397h0.942v10.169h-0.942V54.397z"/>
	<path fill="#FFFFFF" d="M85.248,58.929c-0.024,0.134-0.067,0.287-0.128,0.459c-0.061,0.173-0.151,0.334-0.27,0.483
		s-0.267,0.274-0.446,0.376c-0.18,0.102-0.396,0.153-0.649,0.153c-0.22,0-0.422-0.041-0.605-0.124
		c-0.184-0.082-0.361-0.174-0.532-0.276c-0.196-0.11-0.384-0.22-0.563-0.33c-0.179-0.11-0.375-0.165-0.587-0.165
		c-0.115,0-0.213,0.026-0.294,0.077c-0.082,0.051-0.149,0.116-0.202,0.194c-0.053,0.079-0.1,0.167-0.141,0.265
		c-0.041,0.098-0.073,0.19-0.098,0.277l-0.698-0.188c0.024-0.133,0.069-0.286,0.135-0.459c0.065-0.172,0.155-0.333,0.269-0.482
		s0.259-0.275,0.435-0.377c0.175-0.102,0.394-0.153,0.655-0.153c0.22,0,0.422,0.041,0.605,0.124
		c0.184,0.083,0.361,0.175,0.533,0.277c0.195,0.11,0.385,0.22,0.569,0.329c0.184,0.11,0.377,0.165,0.581,0.165
		c0.115,0,0.212-0.025,0.294-0.077c0.082-0.051,0.149-0.116,0.202-0.194c0.053-0.078,0.1-0.167,0.141-0.265
		c0.041-0.098,0.074-0.19,0.098-0.276L85.248,58.929z"/>
	<path fill="#FFFFFF" d="M91.367,58.929c-0.024,0.134-0.067,0.287-0.128,0.459c-0.062,0.173-0.151,0.334-0.27,0.483
		c-0.119,0.149-0.268,0.274-0.447,0.376c-0.18,0.102-0.396,0.153-0.649,0.153c-0.22,0-0.421-0.041-0.605-0.124
		c-0.184-0.082-0.361-0.174-0.532-0.276c-0.196-0.11-0.383-0.22-0.563-0.33c-0.179-0.11-0.375-0.165-0.587-0.165
		c-0.114,0-0.212,0.026-0.293,0.077c-0.082,0.051-0.149,0.116-0.202,0.194c-0.053,0.079-0.1,0.167-0.141,0.265
		s-0.074,0.19-0.098,0.277l-0.698-0.188c0.024-0.133,0.069-0.286,0.135-0.459c0.065-0.172,0.155-0.333,0.269-0.482
		c0.115-0.149,0.259-0.275,0.435-0.377c0.175-0.102,0.393-0.153,0.655-0.153c0.22,0,0.422,0.041,0.605,0.124
		s0.361,0.175,0.532,0.277c0.196,0.11,0.385,0.22,0.569,0.329c0.184,0.11,0.377,0.165,0.581,0.165c0.114,0,0.212-0.025,0.294-0.077
		c0.082-0.051,0.149-0.116,0.202-0.194c0.053-0.078,0.1-0.167,0.14-0.265c0.041-0.098,0.074-0.19,0.098-0.276L91.367,58.929z"/>
	<path fill="#FFFFFF" d="M97.485,58.929c-0.024,0.134-0.067,0.287-0.128,0.459c-0.061,0.173-0.151,0.334-0.269,0.483
		c-0.119,0.149-0.268,0.274-0.447,0.376c-0.18,0.102-0.396,0.153-0.649,0.153c-0.22,0-0.422-0.041-0.605-0.124
		c-0.184-0.082-0.361-0.174-0.532-0.276c-0.196-0.11-0.384-0.22-0.563-0.33c-0.179-0.11-0.375-0.165-0.587-0.165
		c-0.115,0-0.213,0.026-0.294,0.077c-0.082,0.051-0.149,0.116-0.202,0.194c-0.053,0.079-0.1,0.167-0.14,0.265
		c-0.041,0.098-0.074,0.19-0.098,0.277l-0.698-0.188c0.024-0.133,0.069-0.286,0.135-0.459c0.065-0.172,0.155-0.333,0.269-0.482
		c0.115-0.149,0.259-0.275,0.435-0.377c0.175-0.102,0.394-0.153,0.655-0.153c0.22,0,0.422,0.041,0.605,0.124
		c0.184,0.083,0.361,0.175,0.533,0.277c0.195,0.11,0.385,0.22,0.569,0.329c0.184,0.11,0.377,0.165,0.581,0.165
		c0.115,0,0.212-0.025,0.294-0.077c0.082-0.051,0.149-0.116,0.202-0.194c0.053-0.078,0.1-0.167,0.141-0.265
		c0.041-0.098,0.074-0.19,0.098-0.276L97.485,58.929z"/>
	<path fill="#FFFFFF" d="M103.604,58.929c-0.024,0.134-0.067,0.287-0.128,0.459c-0.062,0.173-0.151,0.334-0.27,0.483
		c-0.119,0.149-0.267,0.274-0.447,0.376s-0.396,0.153-0.648,0.153c-0.22,0-0.422-0.041-0.606-0.124
		c-0.184-0.082-0.361-0.174-0.532-0.276c-0.196-0.11-0.383-0.22-0.563-0.33c-0.179-0.11-0.375-0.165-0.587-0.165
		c-0.115,0-0.213,0.026-0.294,0.077c-0.082,0.051-0.149,0.116-0.202,0.194c-0.053,0.079-0.1,0.167-0.141,0.265
		c-0.041,0.098-0.074,0.19-0.098,0.277l-0.698-0.188c0.024-0.133,0.069-0.286,0.135-0.459c0.065-0.172,0.155-0.333,0.269-0.482
		s0.259-0.275,0.435-0.377c0.175-0.102,0.394-0.153,0.655-0.153c0.22,0,0.422,0.041,0.605,0.124s0.361,0.175,0.532,0.277
		c0.196,0.11,0.386,0.22,0.569,0.329c0.184,0.11,0.377,0.165,0.581,0.165c0.115,0,0.212-0.025,0.294-0.077
		c0.082-0.051,0.149-0.116,0.202-0.194c0.053-0.078,0.1-0.167,0.14-0.265c0.041-0.098,0.074-0.19,0.098-0.276L103.604,58.929z"/>
	<path fill="#FFFFFF" d="M109.724,58.929c-0.024,0.134-0.067,0.287-0.129,0.459c-0.061,0.173-0.151,0.334-0.269,0.483
		c-0.119,0.149-0.268,0.274-0.447,0.376c-0.18,0.102-0.396,0.153-0.649,0.153c-0.22,0-0.422-0.041-0.605-0.124
		c-0.184-0.082-0.361-0.174-0.532-0.276c-0.196-0.11-0.383-0.22-0.563-0.33c-0.179-0.11-0.375-0.165-0.587-0.165
		c-0.115,0-0.212,0.026-0.294,0.077c-0.082,0.051-0.149,0.116-0.202,0.194c-0.053,0.079-0.1,0.167-0.14,0.265
		c-0.041,0.098-0.074,0.19-0.098,0.277l-0.698-0.188c0.024-0.133,0.069-0.286,0.135-0.459c0.065-0.172,0.155-0.333,0.269-0.482
		c0.115-0.149,0.259-0.275,0.435-0.377c0.175-0.102,0.394-0.153,0.655-0.153c0.22,0,0.422,0.041,0.606,0.124
		c0.184,0.083,0.361,0.175,0.532,0.277c0.196,0.11,0.385,0.22,0.569,0.329c0.184,0.11,0.377,0.165,0.582,0.165
		c0.114,0,0.212-0.025,0.293-0.077c0.082-0.051,0.149-0.116,0.202-0.194c0.053-0.078,0.1-0.167,0.141-0.265s0.074-0.19,0.098-0.276
		L109.724,58.929z"/>
	<path fill="#FFFFFF" d="M115.842,58.929c-0.024,0.134-0.067,0.287-0.128,0.459c-0.061,0.173-0.151,0.334-0.27,0.483
		s-0.267,0.274-0.446,0.376c-0.18,0.102-0.396,0.153-0.649,0.153c-0.22,0-0.422-0.041-0.605-0.124
		c-0.184-0.082-0.361-0.174-0.533-0.276c-0.195-0.11-0.383-0.22-0.563-0.33c-0.179-0.11-0.375-0.165-0.587-0.165
		c-0.115,0-0.213,0.026-0.294,0.077c-0.082,0.051-0.149,0.116-0.202,0.194c-0.053,0.079-0.1,0.167-0.141,0.265
		c-0.041,0.098-0.074,0.19-0.098,0.277l-0.697-0.188c0.024-0.133,0.069-0.286,0.135-0.459c0.065-0.172,0.155-0.333,0.269-0.482
		s0.259-0.275,0.435-0.377c0.175-0.102,0.394-0.153,0.655-0.153c0.22,0,0.422,0.041,0.605,0.124s0.361,0.175,0.532,0.277
		c0.196,0.11,0.386,0.22,0.569,0.329c0.184,0.11,0.377,0.165,0.581,0.165c0.115,0,0.212-0.025,0.294-0.077
		c0.082-0.051,0.149-0.116,0.202-0.194c0.053-0.078,0.1-0.167,0.14-0.265c0.041-0.098,0.074-0.19,0.098-0.276L115.842,58.929z"/>
	<path fill="#FFFFFF" d="M121.961,58.929c-0.024,0.134-0.067,0.287-0.128,0.459c-0.062,0.173-0.151,0.334-0.27,0.483
		c-0.119,0.149-0.268,0.274-0.447,0.376c-0.18,0.102-0.396,0.153-0.649,0.153c-0.22,0-0.422-0.041-0.605-0.124
		c-0.184-0.082-0.361-0.174-0.532-0.276c-0.196-0.11-0.383-0.22-0.563-0.33s-0.375-0.165-0.587-0.165
		c-0.114,0-0.212,0.026-0.294,0.077c-0.082,0.051-0.148,0.116-0.202,0.194c-0.053,0.079-0.1,0.167-0.14,0.265
		c-0.041,0.098-0.074,0.19-0.098,0.277l-0.698-0.188c0.024-0.133,0.069-0.286,0.135-0.459c0.065-0.172,0.155-0.333,0.269-0.482
		c0.115-0.149,0.259-0.275,0.435-0.377c0.175-0.102,0.393-0.153,0.655-0.153c0.22,0,0.421,0.041,0.605,0.124
		c0.184,0.083,0.361,0.175,0.532,0.277c0.196,0.11,0.385,0.22,0.569,0.329c0.184,0.11,0.377,0.165,0.581,0.165
		c0.114,0,0.212-0.025,0.293-0.077c0.082-0.051,0.149-0.116,0.202-0.194c0.053-0.078,0.1-0.167,0.141-0.265s0.074-0.19,0.098-0.276
		L121.961,58.929z"/>
	<path fill="#FFFFFF" d="M125.008,54.397h0.942v10.169h-0.942V54.397z"/>
	<path fill="#F26522" d="M173.189,63.554c0.147-0.031,0.291-0.063,0.434-0.094s0.275-0.076,0.398-0.135
		c0.123-0.059,0.232-0.133,0.331-0.224c0.098-0.09,0.175-0.214,0.232-0.371c-0.261-0.023-0.451-0.12-0.568-0.289
		c-0.119-0.168-0.178-0.335-0.178-0.5c0-0.314,0.092-0.551,0.275-0.712s0.394-0.241,0.63-0.241c0.302,0,0.53,0.104,0.685,0.312
		c0.155,0.208,0.232,0.461,0.232,0.759c0,0.228-0.047,0.465-0.14,0.712c-0.094,0.247-0.237,0.479-0.429,0.694
		c-0.192,0.216-0.431,0.4-0.716,0.553c-0.286,0.153-0.625,0.253-1.016,0.3L173.189,63.554z"/>
	<path fill="#F26522" d="M7.978,80.228c0.146-0.031,0.291-0.063,0.434-0.094s0.275-0.076,0.398-0.135
		c0.123-0.059,0.232-0.133,0.331-0.224c0.098-0.09,0.175-0.214,0.232-0.371c-0.261-0.023-0.451-0.12-0.569-0.289
		c-0.118-0.168-0.178-0.335-0.178-0.5c0-0.314,0.092-0.551,0.275-0.712c0.184-0.161,0.394-0.241,0.63-0.241
		c0.302,0,0.531,0.104,0.686,0.312c0.155,0.208,0.232,0.461,0.232,0.759c0,0.228-0.047,0.465-0.141,0.712s-0.237,0.479-0.429,0.694
		c-0.191,0.216-0.43,0.4-0.715,0.553c-0.286,0.153-0.625,0.253-1.016,0.3L7.978,80.228z"/>
	<path fill="#FFFFFF" d="M76.057,71.071h0.942V81.24h-0.942V71.071z"/>
	<path fill="#FFFFFF" d="M85.248,75.602c-0.024,0.134-0.067,0.287-0.128,0.459c-0.061,0.173-0.151,0.334-0.27,0.483
		s-0.267,0.274-0.446,0.376c-0.18,0.102-0.396,0.153-0.649,0.153c-0.22,0-0.422-0.041-0.605-0.124
		c-0.184-0.082-0.361-0.174-0.532-0.276c-0.196-0.11-0.384-0.22-0.563-0.33c-0.179-0.11-0.375-0.165-0.587-0.165
		c-0.115,0-0.213,0.026-0.294,0.077c-0.082,0.051-0.149,0.116-0.202,0.194c-0.053,0.079-0.1,0.167-0.141,0.265
		c-0.041,0.098-0.073,0.19-0.098,0.277l-0.698-0.188c0.024-0.133,0.069-0.286,0.135-0.459c0.065-0.172,0.155-0.333,0.269-0.482
		s0.259-0.275,0.435-0.377c0.175-0.102,0.394-0.153,0.655-0.153c0.22,0,0.422,0.041,0.605,0.124
		c0.184,0.083,0.361,0.175,0.533,0.277c0.195,0.11,0.385,0.22,0.569,0.329c0.184,0.11,0.377,0.165,0.581,0.165
		c0.115,0,0.212-0.025,0.294-0.077c0.082-0.051,0.149-0.116,0.202-0.194c0.053-0.078,0.1-0.167,0.141-0.265
		c0.041-0.098,0.074-0.19,0.098-0.276L85.248,75.602z"/>
	<path fill="#FFFFFF" d="M91.367,75.602c-0.024,0.134-0.067,0.287-0.128,0.459c-0.062,0.173-0.151,0.334-0.27,0.483
		c-0.119,0.149-0.268,0.274-0.447,0.376c-0.18,0.102-0.396,0.153-0.649,0.153c-0.22,0-0.421-0.041-0.605-0.124
		c-0.184-0.082-0.361-0.174-0.532-0.276c-0.196-0.11-0.383-0.22-0.563-0.33c-0.179-0.11-0.375-0.165-0.587-0.165
		c-0.114,0-0.212,0.026-0.293,0.077c-0.082,0.051-0.149,0.116-0.202,0.194c-0.053,0.079-0.1,0.167-0.141,0.265
		s-0.074,0.19-0.098,0.277l-0.698-0.188c0.024-0.133,0.069-0.286,0.135-0.459c0.065-0.172,0.155-0.333,0.269-0.482
		c0.115-0.149,0.259-0.275,0.435-0.377c0.175-0.102,0.393-0.153,0.655-0.153c0.22,0,0.422,0.041,0.605,0.124
		s0.361,0.175,0.532,0.277c0.196,0.11,0.385,0.22,0.569,0.329c0.184,0.11,0.377,0.165,0.581,0.165c0.114,0,0.212-0.025,0.294-0.077
		c0.082-0.051,0.149-0.116,0.202-0.194c0.053-0.078,0.1-0.167,0.14-0.265c0.041-0.098,0.074-0.19,0.098-0.276L91.367,75.602z"/>
	<path fill="#FFFFFF" d="M97.485,75.602c-0.024,0.134-0.067,0.287-0.128,0.459c-0.061,0.173-0.151,0.334-0.269,0.483
		c-0.119,0.149-0.268,0.274-0.447,0.376c-0.18,0.102-0.396,0.153-0.649,0.153c-0.22,0-0.422-0.041-0.605-0.124
		c-0.184-0.082-0.361-0.174-0.532-0.276c-0.196-0.11-0.384-0.22-0.563-0.33c-0.179-0.11-0.375-0.165-0.587-0.165
		c-0.115,0-0.213,0.026-0.294,0.077c-0.082,0.051-0.149,0.116-0.202,0.194c-0.053,0.079-0.1,0.167-0.14,0.265
		c-0.041,0.098-0.074,0.19-0.098,0.277l-0.698-0.188c0.024-0.133,0.069-0.286,0.135-0.459c0.065-0.172,0.155-0.333,0.269-0.482
		c0.115-0.149,0.259-0.275,0.435-0.377c0.175-0.102,0.394-0.153,0.655-0.153c0.22,0,0.422,0.041,0.605,0.124
		c0.184,0.083,0.361,0.175,0.533,0.277c0.195,0.11,0.385,0.22,0.569,0.329c0.184,0.11,0.377,0.165,0.581,0.165
		c0.115,0,0.212-0.025,0.294-0.077c0.082-0.051,0.149-0.116,0.202-0.194c0.053-0.078,0.1-0.167,0.141-0.265
		c0.041-0.098,0.074-0.19,0.098-0.276L97.485,75.602z"/>
	<path fill="#FFFFFF" d="M103.604,75.602c-0.024,0.134-0.067,0.287-0.128,0.459c-0.062,0.173-0.151,0.334-0.27,0.483
		c-0.119,0.149-0.267,0.274-0.447,0.376s-0.396,0.153-0.648,0.153c-0.22,0-0.422-0.041-0.606-0.124
		c-0.184-0.082-0.361-0.174-0.532-0.276c-0.196-0.11-0.383-0.22-0.563-0.33c-0.179-0.11-0.375-0.165-0.587-0.165
		c-0.115,0-0.213,0.026-0.294,0.077c-0.082,0.051-0.149,0.116-0.202,0.194c-0.053,0.079-0.1,0.167-0.141,0.265
		c-0.041,0.098-0.074,0.19-0.098,0.277l-0.698-0.188c0.024-0.133,0.069-0.286,0.135-0.459c0.065-0.172,0.155-0.333,0.269-0.482
		s0.259-0.275,0.435-0.377c0.175-0.102,0.394-0.153,0.655-0.153c0.22,0,0.422,0.041,0.605,0.124s0.361,0.175,0.532,0.277
		c0.196,0.11,0.386,0.22,0.569,0.329c0.184,0.11,0.377,0.165,0.581,0.165c0.115,0,0.212-0.025,0.294-0.077
		c0.082-0.051,0.149-0.116,0.202-0.194c0.053-0.078,0.1-0.167,0.14-0.265c0.041-0.098,0.074-0.19,0.098-0.276L103.604,75.602z"/>
	<path fill="#FFFFFF" d="M109.724,75.602c-0.024,0.134-0.067,0.287-0.129,0.459c-0.061,0.173-0.151,0.334-0.269,0.483
		c-0.119,0.149-0.268,0.274-0.447,0.376c-0.18,0.102-0.396,0.153-0.649,0.153c-0.22,0-0.422-0.041-0.605-0.124
		c-0.184-0.082-0.361-0.174-0.532-0.276c-0.196-0.11-0.383-0.22-0.563-0.33c-0.179-0.11-0.375-0.165-0.587-0.165
		c-0.115,0-0.212,0.026-0.294,0.077c-0.082,0.051-0.149,0.116-0.202,0.194c-0.053,0.079-0.1,0.167-0.14,0.265
		c-0.041,0.098-0.074,0.19-0.098,0.277l-0.698-0.188c0.024-0.133,0.069-0.286,0.135-0.459c0.065-0.172,0.155-0.333,0.269-0.482
		c0.115-0.149,0.259-0.275,0.435-0.377c0.175-0.102,0.394-0.153,0.655-0.153c0.22,0,0.422,0.041,0.606,0.124
		c0.184,0.083,0.361,0.175,0.532,0.277c0.196,0.11,0.385,0.22,0.569,0.329c0.184,0.11,0.377,0.165,0.582,0.165
		c0.114,0,0.212-0.025,0.293-0.077c0.082-0.051,0.149-0.116,0.202-0.194c0.053-0.078,0.1-0.167,0.141-0.265s0.074-0.19,0.098-0.276
		L109.724,75.602z"/>
	<path fill="#FFFFFF" d="M115.842,75.602c-0.024,0.134-0.067,0.287-0.128,0.459c-0.061,0.173-0.151,0.334-0.27,0.483
		s-0.267,0.274-0.446,0.376c-0.18,0.102-0.396,0.153-0.649,0.153c-0.22,0-0.422-0.041-0.605-0.124
		c-0.184-0.082-0.361-0.174-0.533-0.276c-0.195-0.11-0.383-0.22-0.563-0.33c-0.179-0.11-0.375-0.165-0.587-0.165
		c-0.115,0-0.213,0.026-0.294,0.077c-0.082,0.051-0.149,0.116-0.202,0.194c-0.053,0.079-0.1,0.167-0.141,0.265
		c-0.041,0.098-0.074,0.19-0.098,0.277l-0.697-0.188c0.024-0.133,0.069-0.286,0.135-0.459c0.065-0.172,0.155-0.333,0.269-0.482
		s0.259-0.275,0.435-0.377c0.175-0.102,0.394-0.153,0.655-0.153c0.22,0,0.422,0.041,0.605,0.124s0.361,0.175,0.532,0.277
		c0.196,0.11,0.386,0.22,0.569,0.329c0.184,0.11,0.377,0.165,0.581,0.165c0.115,0,0.212-0.025,0.294-0.077
		c0.082-0.051,0.149-0.116,0.202-0.194c0.053-0.078,0.1-0.167,0.14-0.265c0.041-0.098,0.074-0.19,0.098-0.276L115.842,75.602z"/>
	<path fill="#FFFFFF" d="M121.961,75.602c-0.024,0.134-0.067,0.287-0.128,0.459c-0.062,0.173-0.151,0.334-0.27,0.483
		c-0.119,0.149-0.268,0.274-0.447,0.376c-0.18,0.102-0.396,0.153-0.649,0.153c-0.22,0-0.422-0.041-0.605-0.124
		c-0.184-0.082-0.361-0.174-0.532-0.276c-0.196-0.11-0.383-0.22-0.563-0.33s-0.375-0.165-0.587-0.165
		c-0.114,0-0.212,0.026-0.294,0.077c-0.082,0.051-0.148,0.116-0.202,0.194c-0.053,0.079-0.1,0.167-0.14,0.265
		c-0.041,0.098-0.074,0.19-0.098,0.277l-0.698-0.188c0.024-0.133,0.069-0.286,0.135-0.459c0.065-0.172,0.155-0.333,0.269-0.482
		c0.115-0.149,0.259-0.275,0.435-0.377c0.175-0.102,0.393-0.153,0.655-0.153c0.22,0,0.421,0.041,0.605,0.124
		c0.184,0.083,0.361,0.175,0.532,0.277c0.196,0.11,0.385,0.22,0.569,0.329c0.184,0.11,0.377,0.165,0.581,0.165
		c0.114,0,0.212-0.025,0.293-0.077c0.082-0.051,0.149-0.116,0.202-0.194c0.053-0.078,0.1-0.167,0.141-0.265s0.074-0.19,0.098-0.276
		L121.961,75.602z"/>
	<path fill="#FFFFFF" d="M125.008,71.071h0.942V81.24h-0.942V71.071z"/>
	<path fill="#F26522" d="M179.308,80.228c0.147-0.031,0.292-0.063,0.435-0.094c0.143-0.031,0.275-0.076,0.398-0.135
		c0.122-0.059,0.232-0.133,0.331-0.224c0.098-0.09,0.175-0.214,0.232-0.371c-0.261-0.023-0.451-0.12-0.569-0.289
		c-0.118-0.168-0.178-0.335-0.178-0.5c0-0.314,0.092-0.551,0.275-0.712c0.184-0.161,0.394-0.241,0.63-0.241
		c0.302,0,0.53,0.104,0.686,0.312c0.155,0.208,0.232,0.461,0.232,0.759c0,0.228-0.047,0.465-0.141,0.712
		c-0.094,0.247-0.237,0.479-0.429,0.694c-0.191,0.216-0.43,0.4-0.715,0.553c-0.286,0.153-0.625,0.253-1.016,0.3L179.308,80.228z"/>
	<path fill="#F26522" d="M7.978,96.901c0.146-0.031,0.291-0.063,0.434-0.094s0.275-0.076,0.398-0.135
		c0.123-0.059,0.232-0.133,0.331-0.224c0.098-0.09,0.175-0.214,0.232-0.371c-0.261-0.023-0.451-0.12-0.569-0.289
		c-0.118-0.168-0.178-0.335-0.178-0.5c0-0.314,0.092-0.551,0.275-0.712c0.184-0.161,0.394-0.241,0.63-0.241
		c0.302,0,0.531,0.104,0.686,0.312c0.155,0.208,0.232,0.461,0.232,0.759c0,0.228-0.047,0.465-0.141,0.712s-0.237,0.479-0.429,0.694
		c-0.191,0.216-0.43,0.4-0.715,0.553c-0.286,0.153-0.625,0.253-1.016,0.3L7.978,96.901z"/>
	<path fill="#FFFFFF" d="M76.057,87.744h0.942v10.169h-0.942V87.744z"/>
	<path fill="#FFFFFF" d="M125.008,87.744h0.942v10.169h-0.942V87.744z"/>
	<path fill="#F26522" d="M179.308,96.901c0.147-0.031,0.292-0.063,0.435-0.094c0.143-0.031,0.275-0.076,0.398-0.135
		c0.122-0.059,0.232-0.133,0.331-0.224c0.098-0.09,0.175-0.214,0.232-0.371c-0.261-0.023-0.451-0.12-0.569-0.289
		c-0.118-0.168-0.178-0.335-0.178-0.5c0-0.314,0.092-0.551,0.275-0.712c0.184-0.161,0.394-0.241,0.63-0.241
		c0.302,0,0.53,0.104,0.686,0.312c0.155,0.208,0.232,0.461,0.232,0.759c0,0.228-0.047,0.465-0.141,0.712
		c-0.094,0.247-0.237,0.479-0.429,0.694c-0.191,0.216-0.43,0.4-0.715,0.553c-0.286,0.153-0.625,0.253-1.016,0.3L179.308,96.901z"/>
	<path fill="#F26522" d="M7.978,113.574c0.146-0.031,0.291-0.063,0.434-0.094s0.275-0.076,0.398-0.135
		c0.123-0.059,0.232-0.133,0.331-0.224c0.098-0.09,0.175-0.214,0.232-0.371c-0.261-0.023-0.451-0.12-0.569-0.289
		c-0.118-0.168-0.178-0.335-0.178-0.5c0-0.314,0.092-0.551,0.275-0.712c0.184-0.161,0.394-0.241,0.63-0.241
		c0.302,0,0.531,0.104,0.686,0.312c0.155,0.208,0.232,0.461,0.232,0.759c0,0.228-0.047,0.465-0.141,0.712s-0.237,0.479-0.429,0.694
		c-0.191,0.216-0.43,0.4-0.715,0.553c-0.286,0.153-0.625,0.253-1.016,0.3L7.978,113.574z"/>
	<path fill="#FFFFFF" d="M50.872,114.586h-1.04l3.414-10.169h1.016L50.872,114.586z"/>
	<path fill="#FFFFFF" d="M60.772,108.949c-0.024,0.134-0.067,0.287-0.128,0.459c-0.061,0.173-0.151,0.334-0.27,0.483
		s-0.267,0.274-0.447,0.376s-0.396,0.153-0.648,0.153c-0.22,0-0.422-0.041-0.605-0.124c-0.184-0.082-0.361-0.174-0.533-0.276
		c-0.195-0.11-0.383-0.22-0.563-0.33c-0.179-0.11-0.375-0.165-0.587-0.165c-0.115,0-0.213,0.026-0.294,0.077
		c-0.082,0.051-0.149,0.116-0.202,0.194c-0.053,0.079-0.1,0.167-0.141,0.265c-0.041,0.098-0.074,0.19-0.098,0.277l-0.697-0.188
		c0.024-0.133,0.069-0.286,0.135-0.459c0.065-0.172,0.155-0.333,0.269-0.482s0.259-0.275,0.435-0.377
		c0.175-0.102,0.394-0.153,0.655-0.153c0.22,0,0.422,0.041,0.605,0.124s0.361,0.175,0.532,0.277c0.196,0.11,0.386,0.22,0.569,0.329
		c0.184,0.11,0.377,0.165,0.581,0.165c0.115,0,0.212-0.025,0.294-0.077c0.082-0.051,0.149-0.116,0.202-0.194
		c0.053-0.078,0.1-0.167,0.14-0.265c0.041-0.098,0.074-0.19,0.098-0.276L60.772,108.949z"/>
	<path fill="#FFFFFF" d="M66.891,108.949c-0.024,0.134-0.067,0.287-0.128,0.459c-0.062,0.173-0.152,0.334-0.27,0.483
		c-0.119,0.149-0.268,0.274-0.447,0.376c-0.18,0.102-0.396,0.153-0.649,0.153c-0.22,0-0.422-0.041-0.605-0.124
		c-0.184-0.082-0.361-0.174-0.532-0.276c-0.196-0.11-0.383-0.22-0.563-0.33c-0.179-0.11-0.375-0.165-0.587-0.165
		c-0.114,0-0.212,0.026-0.294,0.077c-0.082,0.051-0.149,0.116-0.202,0.194c-0.053,0.079-0.1,0.167-0.14,0.265
		c-0.041,0.098-0.074,0.19-0.098,0.277l-0.698-0.188c0.024-0.133,0.069-0.286,0.135-0.459c0.065-0.172,0.155-0.333,0.269-0.482
		c0.115-0.149,0.259-0.275,0.435-0.377c0.175-0.102,0.394-0.153,0.655-0.153c0.22,0,0.421,0.041,0.605,0.124
		c0.184,0.083,0.361,0.175,0.532,0.277c0.196,0.11,0.385,0.22,0.569,0.329c0.184,0.11,0.378,0.165,0.582,0.165
		c0.114,0,0.212-0.025,0.293-0.077c0.082-0.051,0.149-0.116,0.202-0.194c0.053-0.078,0.1-0.167,0.141-0.265s0.074-0.19,0.098-0.276
		L66.891,108.949z"/>
	<path fill="#FFFFFF" d="M68.2,104.417h1.016l3.39,10.169h-1.028L68.2,104.417z"/>
	<path fill="#FFFFFF" d="M76.057,104.417h0.942v10.169h-0.942V104.417z"/>
	<path fill="#FFFFFF" d="M99.823,114.586h-1.041l3.414-10.169h1.016L99.823,114.586z"/>
	<path fill="#FFFFFF" d="M109.724,108.949c-0.024,0.134-0.067,0.287-0.129,0.459c-0.061,0.173-0.151,0.334-0.269,0.483
		c-0.119,0.149-0.268,0.274-0.447,0.376c-0.18,0.102-0.396,0.153-0.649,0.153c-0.22,0-0.422-0.041-0.605-0.124
		c-0.184-0.082-0.361-0.174-0.532-0.276c-0.196-0.11-0.383-0.22-0.563-0.33c-0.179-0.11-0.375-0.165-0.587-0.165
		c-0.115,0-0.212,0.026-0.294,0.077c-0.082,0.051-0.149,0.116-0.202,0.194c-0.053,0.079-0.1,0.167-0.14,0.265
		c-0.041,0.098-0.074,0.19-0.098,0.277l-0.698-0.188c0.024-0.133,0.069-0.286,0.135-0.459c0.065-0.172,0.155-0.333,0.269-0.482
		c0.115-0.149,0.259-0.275,0.435-0.377c0.175-0.102,0.394-0.153,0.655-0.153c0.22,0,0.422,0.041,0.606,0.124
		c0.184,0.083,0.361,0.175,0.532,0.277c0.196,0.11,0.385,0.22,0.569,0.329c0.184,0.11,0.377,0.165,0.582,0.165
		c0.114,0,0.212-0.025,0.293-0.077c0.082-0.051,0.149-0.116,0.202-0.194c0.053-0.078,0.1-0.167,0.141-0.265s0.074-0.19,0.098-0.276
		L109.724,108.949z"/>
	<path fill="#FFFFFF" d="M115.842,108.949c-0.024,0.134-0.067,0.287-0.128,0.459c-0.061,0.173-0.151,0.334-0.27,0.483
		s-0.267,0.274-0.446,0.376c-0.18,0.102-0.396,0.153-0.649,0.153c-0.22,0-0.422-0.041-0.605-0.124
		c-0.184-0.082-0.361-0.174-0.533-0.276c-0.195-0.11-0.383-0.22-0.563-0.33c-0.179-0.11-0.375-0.165-0.587-0.165
		c-0.115,0-0.213,0.026-0.294,0.077c-0.082,0.051-0.149,0.116-0.202,0.194c-0.053,0.079-0.1,0.167-0.141,0.265
		c-0.041,0.098-0.074,0.19-0.098,0.277l-0.697-0.188c0.024-0.133,0.069-0.286,0.135-0.459c0.065-0.172,0.155-0.333,0.269-0.482
		s0.259-0.275,0.435-0.377c0.175-0.102,0.394-0.153,0.655-0.153c0.22,0,0.422,0.041,0.605,0.124s0.361,0.175,0.532,0.277
		c0.196,0.11,0.386,0.22,0.569,0.329c0.184,0.11,0.377,0.165,0.581,0.165c0.115,0,0.212-0.025,0.294-0.077
		c0.082-0.051,0.149-0.116,0.202-0.194c0.053-0.078,0.1-0.167,0.14-0.265c0.041-0.098,0.074-0.19,0.098-0.276L115.842,108.949z"/>
	<path fill="#FFFFFF" d="M117.151,104.417h1.016l3.39,10.169h-1.028L117.151,104.417z"/>
	<path fill="#FFFFFF" d="M125.008,104.417h0.942v10.169h-0.942V104.417z"/>
	<path fill="#F26522" d="M179.308,113.574c0.147-0.031,0.292-0.063,0.435-0.094c0.143-0.031,0.275-0.076,0.398-0.135
		c0.122-0.059,0.232-0.133,0.331-0.224c0.098-0.09,0.175-0.214,0.232-0.371c-0.261-0.023-0.451-0.12-0.569-0.289
		c-0.118-0.168-0.178-0.335-0.178-0.5c0-0.314,0.092-0.551,0.275-0.712c0.184-0.161,0.394-0.241,0.63-0.241
		c0.302,0,0.53,0.104,0.686,0.312c0.155,0.208,0.232,0.461,0.232,0.759c0,0.228-0.047,0.465-0.141,0.712
		c-0.094,0.247-0.237,0.479-0.429,0.694c-0.191,0.216-0.43,0.4-0.715,0.553c-0.286,0.153-0.625,0.253-1.016,0.3L179.308,113.574z"/>
	<path fill="#F26522" d="M14.097,130.248c0.147-0.031,0.292-0.063,0.434-0.094c0.143-0.031,0.275-0.076,0.398-0.135
		c0.123-0.059,0.232-0.133,0.331-0.224c0.098-0.09,0.175-0.214,0.232-0.371c-0.261-0.023-0.451-0.12-0.569-0.289
		c-0.119-0.168-0.178-0.335-0.178-0.5c0-0.314,0.092-0.551,0.275-0.712c0.184-0.161,0.394-0.241,0.63-0.241
		c0.302,0,0.53,0.104,0.685,0.312c0.155,0.208,0.233,0.461,0.233,0.759c0,0.228-0.047,0.465-0.141,0.712
		c-0.094,0.247-0.237,0.479-0.429,0.694s-0.43,0.4-0.716,0.553c-0.286,0.153-0.624,0.253-1.016,0.3L14.097,130.248z"/>
	<path fill="#FFFFFF" d="M49.843,121.091h1.016l3.39,10.169h-1.028L49.843,121.091z"/>
	<path fill="#FFFFFF" d="M55.204,130.436h5.923v0.824h-5.923V130.436z"/>
	<path fill="#FFFFFF" d="M61.323,130.436h5.923v0.824h-5.923V130.436z"/>
	<path fill="#FFFFFF" d="M69.229,131.26h-1.041l3.414-10.169h1.016L69.229,131.26z"/>
	<path fill="#FFFFFF" d="M98.795,121.091h1.016l3.39,10.169h-1.028L98.795,121.091z"/>
	<path fill="#FFFFFF" d="M104.155,130.436h5.923v0.824h-5.923V130.436z"/>
	<path fill="#FFFFFF" d="M110.274,130.436h5.922v0.824h-5.922V130.436z"/>
	<path fill="#FFFFFF" d="M118.18,131.26h-1.04l3.414-10.169h1.016L118.18,131.26z"/>
	<path fill="#F26522" d="M173.189,130.248c0.147-0.031,0.291-0.063,0.434-0.094s0.275-0.076,0.398-0.135
		c0.123-0.059,0.232-0.133,0.331-0.224c0.098-0.09,0.175-0.214,0.232-0.371c-0.261-0.023-0.451-0.12-0.568-0.289
		c-0.119-0.168-0.178-0.335-0.178-0.5c0-0.314,0.092-0.551,0.275-0.712s0.394-0.241,0.63-0.241c0.302,0,0.53,0.104,0.685,0.312
		c0.155,0.208,0.232,0.461,0.232,0.759c0,0.228-0.047,0.465-0.14,0.712c-0.094,0.247-0.237,0.479-0.429,0.694
		c-0.192,0.216-0.431,0.4-0.716,0.553c-0.286,0.153-0.625,0.253-1.016,0.3L173.189,130.248z"/>
	<path fill="#F26522" d="M20.216,146.921c0.147-0.031,0.291-0.063,0.434-0.094s0.275-0.076,0.398-0.135
		c0.123-0.059,0.232-0.133,0.331-0.224c0.098-0.09,0.175-0.214,0.232-0.371c-0.261-0.023-0.451-0.12-0.568-0.289
		c-0.119-0.168-0.178-0.335-0.178-0.5c0-0.314,0.092-0.551,0.275-0.712c0.184-0.161,0.394-0.241,0.631-0.241
		c0.302,0,0.53,0.104,0.685,0.312c0.155,0.208,0.232,0.461,0.232,0.759c0,0.228-0.047,0.465-0.141,0.712s-0.237,0.479-0.429,0.694
		c-0.191,0.216-0.43,0.4-0.715,0.553c-0.286,0.153-0.625,0.253-1.016,0.3L20.216,146.921z"/>
	<path fill="#F26522" d="M167.07,146.921c0.147-0.031,0.292-0.063,0.435-0.094c0.143-0.031,0.275-0.076,0.397-0.135
		c0.123-0.059,0.233-0.133,0.331-0.224c0.097-0.09,0.175-0.214,0.232-0.371c-0.261-0.023-0.451-0.12-0.569-0.289
		c-0.119-0.168-0.178-0.335-0.178-0.5c0-0.314,0.092-0.551,0.275-0.712c0.184-0.161,0.394-0.241,0.63-0.241
		c0.302,0,0.53,0.104,0.685,0.312c0.155,0.208,0.233,0.461,0.233,0.759c0,0.228-0.047,0.465-0.141,0.712
		c-0.094,0.247-0.237,0.479-0.429,0.694s-0.43,0.4-0.715,0.553c-0.286,0.153-0.625,0.253-1.016,0.3L167.07,146.921z"/>
	<path fill="#F26522" d="M32.454,163.595c0.147-0.031,0.291-0.063,0.434-0.094s0.275-0.076,0.398-0.135
		c0.123-0.059,0.232-0.133,0.331-0.224c0.098-0.09,0.175-0.214,0.232-0.371c-0.261-0.023-0.451-0.12-0.568-0.289
		c-0.119-0.168-0.178-0.335-0.178-0.5c0-0.314,0.092-0.551,0.275-0.712s0.394-0.241,0.63-0.241c0.302,0,0.53,0.104,0.685,0.312
		c0.155,0.208,0.232,0.461,0.232,0.759c0,0.228-0.047,0.465-0.14,0.712c-0.094,0.247-0.237,0.479-0.429,0.694
		c-0.192,0.216-0.431,0.4-0.716,0.553c-0.286,0.153-0.625,0.253-1.016,0.3L32.454,163.595z"/>
	<path fill="#F26522" d="M39.821,159.005l1.175-3.625h0.942c0.164,1.146,0.279,2.318,0.349,3.519c0.069,1.2,0.133,2.456,0.19,3.766
		h-0.979c-0.008-0.424-0.017-0.883-0.024-1.377c-0.008-0.495-0.019-1.004-0.03-1.53c-0.013-0.525-0.024-1.059-0.037-1.601
		c-0.012-0.542-0.026-1.067-0.043-1.577l-1.101,3.319H39.38l-1.126-3.319c-0.009,0.51-0.019,1.034-0.031,1.571
		c-0.012,0.538-0.024,1.071-0.037,1.601c-0.012,0.53-0.024,1.042-0.037,1.536c-0.013,0.494-0.022,0.953-0.031,1.377H37.14
		c0.025-0.596,0.054-1.208,0.086-1.836c0.033-0.628,0.072-1.251,0.116-1.872c0.045-0.62,0.098-1.231,0.159-1.836
		c0.061-0.604,0.128-1.185,0.202-1.742h0.93L39.821,159.005z"/>
	<path fill="#F26522" d="M48.118,162.512c-0.22,0.055-0.512,0.114-0.875,0.176c-0.363,0.063-0.79,0.094-1.279,0.094
		c-0.433,0-0.792-0.061-1.077-0.183c-0.286-0.122-0.519-0.294-0.698-0.518s-0.306-0.488-0.379-0.794
		c-0.073-0.306-0.11-0.644-0.11-1.012v-3.072h1.003v2.86c0,0.675,0.104,1.153,0.313,1.436c0.208,0.282,0.557,0.423,1.046,0.423
		c0.106,0,0.214-0.003,0.324-0.012c0.11-0.007,0.214-0.018,0.312-0.029c0.098-0.012,0.184-0.023,0.257-0.035
		c0.074-0.012,0.123-0.021,0.147-0.029v-4.614h1.016V162.512z"/>
	<path fill="#F26522" d="M53.282,161.3c0-0.196-0.083-0.357-0.251-0.482s-0.375-0.235-0.624-0.33s-0.52-0.187-0.813-0.277
		c-0.294-0.09-0.565-0.202-0.814-0.335c-0.249-0.133-0.457-0.298-0.624-0.494c-0.167-0.196-0.251-0.451-0.251-0.765
		c0-0.439,0.186-0.806,0.557-1.1c0.371-0.294,0.953-0.441,1.744-0.441c0.31,0,0.63,0.021,0.961,0.064
		c0.33,0.043,0.614,0.1,0.851,0.171l-0.184,0.871c-0.065-0.031-0.155-0.064-0.27-0.1c-0.114-0.036-0.245-0.067-0.391-0.094
		c-0.147-0.027-0.305-0.049-0.471-0.065c-0.167-0.016-0.329-0.023-0.483-0.023c-0.881,0-1.322,0.231-1.322,0.694
		c0,0.165,0.083,0.304,0.251,0.418c0.167,0.114,0.377,0.218,0.63,0.312c0.253,0.094,0.526,0.19,0.82,0.289
		c0.293,0.098,0.566,0.218,0.82,0.359c0.252,0.141,0.463,0.312,0.63,0.512c0.167,0.2,0.251,0.453,0.251,0.759
		c0,0.495-0.2,0.877-0.6,1.148c-0.399,0.271-1.032,0.406-1.897,0.406c-0.392,0-0.75-0.031-1.077-0.094
		c-0.327-0.063-0.636-0.157-0.93-0.282l0.196-0.883c0.286,0.125,0.585,0.229,0.9,0.312c0.313,0.083,0.65,0.124,1.009,0.124
		C52.821,161.971,53.282,161.747,53.282,161.3z"/>
	<path fill="#F26522" d="M57.406,158.016h-1.64v-0.812h2.644v3.354c0,0.542,0.077,0.905,0.232,1.089
		c0.155,0.185,0.388,0.276,0.698,0.276c0.236,0,0.455-0.027,0.655-0.082c0.2-0.055,0.357-0.114,0.471-0.177l0.147,0.824
		c-0.049,0.024-0.118,0.053-0.208,0.088c-0.089,0.036-0.193,0.069-0.312,0.1c-0.119,0.031-0.249,0.059-0.392,0.083
		c-0.143,0.023-0.292,0.035-0.446,0.035c-0.359,0-0.657-0.047-0.894-0.141c-0.236-0.094-0.426-0.235-0.569-0.424
		c-0.142-0.188-0.242-0.421-0.299-0.7c-0.057-0.278-0.086-0.602-0.086-0.971V158.016z M57.663,156.356
		c-0.212,0-0.395-0.07-0.551-0.212c-0.155-0.141-0.232-0.333-0.232-0.577c0-0.243,0.077-0.435,0.232-0.577
		c0.156-0.141,0.339-0.212,0.551-0.212c0.221,0,0.406,0.071,0.558,0.212c0.15,0.142,0.226,0.333,0.226,0.577
		c0,0.244-0.075,0.436-0.226,0.577C58.069,156.286,57.884,156.356,57.663,156.356z"/>
	<path fill="#F26522" d="M61.824,159.946c0-0.494,0.082-0.922,0.245-1.283c0.163-0.361,0.387-0.659,0.672-0.895
		c0.286-0.235,0.619-0.41,0.998-0.524c0.379-0.114,0.785-0.17,1.218-0.17c0.277,0,0.552,0.018,0.826,0.053
		c0.272,0.035,0.564,0.1,0.875,0.194l-0.232,0.835c-0.27-0.094-0.516-0.155-0.74-0.182c-0.225-0.028-0.451-0.042-0.679-0.042
		c-0.294,0-0.571,0.038-0.833,0.112c-0.261,0.075-0.487,0.192-0.679,0.353c-0.191,0.161-0.345,0.369-0.459,0.624
		c-0.114,0.255-0.171,0.563-0.171,0.924c0,0.345,0.053,0.642,0.16,0.889c0.105,0.247,0.255,0.451,0.446,0.612
		c0.191,0.161,0.422,0.281,0.691,0.359c0.27,0.079,0.567,0.118,0.894,0.118c0.261,0,0.512-0.013,0.753-0.041
		c0.24-0.027,0.503-0.088,0.789-0.183l0.147,0.813c-0.286,0.102-0.575,0.174-0.869,0.218c-0.294,0.043-0.612,0.064-0.955,0.064
		c-0.457,0-0.875-0.061-1.254-0.182c-0.379-0.122-0.706-0.3-0.979-0.536s-0.485-0.532-0.636-0.889S61.824,160.417,61.824,159.946z"
		/>
	<path fill="#F26522" d="M79.092,159.017c0,0.675-0.087,1.248-0.263,1.718c-0.176,0.471-0.417,0.853-0.722,1.147
		c-0.306,0.294-0.669,0.508-1.089,0.642c-0.42,0.133-0.875,0.2-1.365,0.2c-0.506,0-1.016-0.059-1.529-0.177v-7.062
		c0.514-0.118,1.023-0.177,1.529-0.177c0.49,0,0.944,0.067,1.365,0.2c0.42,0.133,0.783,0.349,1.089,0.647
		c0.306,0.298,0.546,0.683,0.722,1.153C79.004,157.781,79.092,158.35,79.092,159.017z M75.126,161.853
		c0.205,0.023,0.412,0.035,0.625,0.035c0.367,0,0.693-0.053,0.979-0.159s0.526-0.275,0.722-0.506s0.347-0.529,0.453-0.895
		c0.106-0.365,0.159-0.802,0.159-1.312c0-0.989-0.198-1.714-0.593-2.177c-0.396-0.463-0.981-0.695-1.756-0.695
		c-0.106,0-0.21,0.002-0.313,0.006c-0.102,0.004-0.193,0.014-0.275,0.03V161.853z"/>
	<path fill="#F26522" d="M85.211,159.935c0,0.432-0.063,0.822-0.19,1.171s-0.304,0.649-0.532,0.9
		c-0.229,0.251-0.502,0.445-0.82,0.583c-0.318,0.137-0.665,0.206-1.04,0.206c-0.367,0-0.708-0.069-1.022-0.206
		c-0.314-0.137-0.585-0.331-0.813-0.583c-0.229-0.251-0.406-0.551-0.532-0.9s-0.19-0.739-0.19-1.171s0.063-0.824,0.19-1.177
		c0.126-0.354,0.304-0.653,0.532-0.9c0.229-0.248,0.5-0.439,0.813-0.577c0.314-0.137,0.655-0.206,1.022-0.206
		c0.375,0,0.722,0.069,1.04,0.206c0.318,0.138,0.592,0.33,0.82,0.577c0.228,0.247,0.406,0.547,0.532,0.9
		C85.147,159.111,85.211,159.503,85.211,159.935z M84.17,159.935c0-0.62-0.139-1.108-0.416-1.465s-0.653-0.536-1.126-0.536
		c-0.464,0-0.834,0.179-1.107,0.536s-0.41,0.846-0.41,1.465c0,0.612,0.136,1.097,0.41,1.454s0.643,0.535,1.107,0.535
		c0.473,0,0.849-0.178,1.126-0.535S84.17,160.546,84.17,159.935z"/>
	<path fill="#F26522" d="M89.898,162.665c-0.122-0.267-0.229-0.51-0.318-0.729c-0.09-0.22-0.178-0.439-0.264-0.659
		c-0.085-0.22-0.171-0.449-0.257-0.688s-0.186-0.512-0.3-0.818c-0.114,0.306-0.216,0.579-0.306,0.818
		c-0.09,0.239-0.178,0.469-0.264,0.688c-0.085,0.22-0.175,0.439-0.269,0.659c-0.094,0.22-0.202,0.463-0.325,0.729h-0.758
		c-0.229-0.965-0.418-1.92-0.569-2.866c-0.151-0.946-0.263-1.811-0.336-2.595h0.955c0.024,0.306,0.051,0.606,0.08,0.9
		c0.028,0.294,0.063,0.602,0.104,0.924c0.041,0.322,0.087,0.671,0.141,1.047c0.053,0.376,0.112,0.8,0.177,1.271
		c0.13-0.313,0.241-0.588,0.331-0.824c0.089-0.235,0.171-0.459,0.245-0.671s0.145-0.427,0.214-0.647
		c0.069-0.219,0.145-0.466,0.226-0.741h0.759c0.082,0.275,0.155,0.522,0.22,0.741c0.065,0.22,0.135,0.436,0.208,0.647
		c0.074,0.212,0.151,0.436,0.233,0.671c0.082,0.235,0.184,0.506,0.306,0.812c0.073-0.431,0.138-0.832,0.195-1.2
		s0.106-0.716,0.147-1.042c0.041-0.325,0.077-0.641,0.11-0.947c0.032-0.306,0.061-0.62,0.085-0.941h0.918
		c-0.041,0.393-0.09,0.812-0.147,1.259s-0.126,0.906-0.208,1.377c-0.082,0.471-0.171,0.947-0.269,1.43
		c-0.098,0.482-0.2,0.947-0.306,1.395H89.898z"/>
	<path fill="#F26522" d="M92.688,157.357c0.367-0.086,0.732-0.153,1.095-0.2c0.363-0.047,0.704-0.07,1.022-0.07
		c0.758,0,1.332,0.188,1.719,0.565c0.388,0.376,0.582,0.981,0.582,1.813v3.201h-1.003v-3.025c0-0.353-0.033-0.639-0.098-0.859
		c-0.065-0.22-0.158-0.39-0.275-0.512c-0.119-0.122-0.262-0.206-0.429-0.253s-0.349-0.071-0.544-0.071
		c-0.164,0-0.337,0.01-0.52,0.03c-0.184,0.02-0.361,0.045-0.532,0.076v4.614h-1.016V157.357z"/>
	<path fill="#F26522" d="M102.075,162.794c-0.359,0-0.657-0.047-0.893-0.141c-0.237-0.094-0.424-0.235-0.563-0.424
		c-0.139-0.188-0.236-0.421-0.294-0.7c-0.057-0.278-0.085-0.602-0.085-0.971v-5.167h-1.64v-0.824h2.644v5.99
		c0,0.275,0.018,0.499,0.055,0.671c0.037,0.173,0.094,0.312,0.171,0.418s0.173,0.179,0.288,0.218
		c0.114,0.04,0.249,0.059,0.404,0.059c0.236,0,0.457-0.027,0.661-0.082c0.204-0.055,0.363-0.114,0.477-0.177l0.147,0.824
		c-0.049,0.024-0.118,0.053-0.208,0.088c-0.089,0.036-0.195,0.069-0.318,0.1c-0.122,0.031-0.255,0.059-0.397,0.083
		C102.378,162.783,102.229,162.794,102.075,162.794z"/>
	<path fill="#F26522" d="M109.687,159.935c0,0.432-0.063,0.822-0.189,1.171s-0.305,0.649-0.533,0.9
		c-0.229,0.251-0.502,0.445-0.82,0.583c-0.318,0.137-0.665,0.206-1.041,0.206c-0.367,0-0.708-0.069-1.021-0.206
		c-0.314-0.137-0.585-0.331-0.814-0.583c-0.229-0.251-0.406-0.551-0.532-0.9s-0.189-0.739-0.189-1.171s0.063-0.824,0.189-1.177
		c0.126-0.354,0.304-0.653,0.532-0.9c0.229-0.248,0.5-0.439,0.814-0.577c0.314-0.137,0.655-0.206,1.021-0.206
		c0.375,0,0.722,0.069,1.041,0.206c0.318,0.138,0.591,0.33,0.82,0.577c0.228,0.247,0.406,0.547,0.533,0.9
		C109.624,159.111,109.687,159.503,109.687,159.935z M108.646,159.935c0-0.62-0.139-1.108-0.417-1.465s-0.653-0.536-1.126-0.536
		c-0.464,0-0.834,0.179-1.107,0.536s-0.41,0.846-0.41,1.465c0,0.612,0.136,1.097,0.41,1.454s0.643,0.535,1.107,0.535
		c0.473,0,0.849-0.178,1.126-0.535S108.646,160.546,108.646,159.935z"/>
	<path fill="#F26522" d="M113.199,157.075c0.424,0,0.781,0.051,1.071,0.153c0.289,0.102,0.523,0.243,0.704,0.424
		c0.179,0.181,0.306,0.4,0.379,0.659c0.073,0.259,0.11,0.541,0.11,0.847v3.413c-0.237,0.04-0.549,0.086-0.936,0.141
		c-0.388,0.055-0.785,0.083-1.193,0.083c-0.31,0-0.612-0.025-0.906-0.077c-0.293-0.051-0.555-0.141-0.783-0.271
		s-0.412-0.308-0.551-0.536c-0.139-0.228-0.208-0.518-0.208-0.871c0-0.314,0.072-0.579,0.214-0.794
		c0.143-0.216,0.327-0.391,0.551-0.524c0.225-0.133,0.481-0.229,0.771-0.289c0.289-0.059,0.581-0.088,0.875-0.088
		c0.399,0,0.791,0.043,1.175,0.129v-0.271c0-0.165-0.019-0.323-0.055-0.477c-0.037-0.153-0.106-0.292-0.208-0.417
		c-0.102-0.125-0.241-0.226-0.416-0.3s-0.402-0.112-0.679-0.112c-0.351,0-0.657,0.023-0.918,0.071
		c-0.261,0.047-0.461,0.094-0.6,0.141l-0.123-0.8c0.139-0.063,0.369-0.118,0.692-0.165
		C112.487,157.098,112.832,157.075,113.199,157.075z M113.297,161.971c0.253,0,0.479-0.008,0.679-0.023
		c0.2-0.016,0.365-0.036,0.496-0.059v-1.624c-0.131-0.039-0.288-0.071-0.471-0.094c-0.184-0.023-0.377-0.035-0.581-0.035
		c-0.188,0-0.372,0.014-0.551,0.041c-0.18,0.028-0.339,0.077-0.478,0.147c-0.139,0.071-0.253,0.163-0.343,0.277
		c-0.089,0.114-0.134,0.257-0.134,0.43c0,0.353,0.124,0.598,0.373,0.735S112.873,161.971,113.297,161.971z"/>
	<path fill="#F26522" d="M120.529,154.673l1.016-0.165v8.003c-0.22,0.063-0.502,0.125-0.844,0.188
		c-0.343,0.063-0.743,0.094-1.199,0.094c-0.408,0-0.779-0.067-1.114-0.2c-0.334-0.133-0.62-0.323-0.856-0.571
		c-0.236-0.247-0.42-0.547-0.551-0.9c-0.13-0.353-0.195-0.749-0.195-1.188c0-0.424,0.055-0.81,0.165-1.159
		c0.11-0.349,0.271-0.649,0.483-0.9c0.212-0.251,0.467-0.447,0.765-0.588c0.297-0.142,0.638-0.212,1.022-0.212
		c0.302,0,0.566,0.035,0.795,0.106c0.229,0.07,0.4,0.145,0.514,0.224V154.673z M120.529,158.357
		c-0.114-0.102-0.281-0.198-0.501-0.289c-0.221-0.09-0.449-0.135-0.686-0.135c-0.269,0-0.499,0.051-0.691,0.153
		s-0.349,0.241-0.471,0.417c-0.123,0.177-0.212,0.389-0.27,0.636s-0.085,0.512-0.085,0.794c0,0.636,0.155,1.126,0.465,1.471
		c0.31,0.345,0.713,0.518,1.211,0.518c0.253,0,0.467-0.012,0.642-0.035s0.304-0.047,0.386-0.07V158.357z"/>
	<path fill="#F26522" d="M134.162,162.359c-0.286,0.157-0.589,0.273-0.912,0.347c-0.322,0.075-0.667,0.112-1.034,0.112
		c-0.449,0-0.862-0.076-1.242-0.229c-0.379-0.153-0.708-0.384-0.985-0.694c-0.278-0.31-0.496-0.704-0.655-1.183
		s-0.239-1.043-0.239-1.695c0-0.62,0.083-1.165,0.251-1.636c0.167-0.471,0.394-0.867,0.679-1.188s0.62-0.565,1.004-0.73
		c0.383-0.165,0.791-0.247,1.223-0.247c0.302,0,0.61,0.04,0.924,0.118c0.314,0.079,0.622,0.208,0.924,0.389l-0.294,0.8
		c-0.538-0.298-1.044-0.447-1.517-0.447c-0.334,0-0.634,0.069-0.9,0.206c-0.265,0.137-0.492,0.335-0.679,0.594
		c-0.188,0.259-0.333,0.569-0.435,0.93s-0.153,0.765-0.153,1.212c0,0.502,0.055,0.938,0.165,1.306
		c0.11,0.369,0.263,0.675,0.458,0.918c0.196,0.244,0.431,0.424,0.704,0.542c0.273,0.118,0.569,0.177,0.888,0.177
		c0.236,0,0.485-0.029,0.746-0.088c0.261-0.059,0.531-0.163,0.808-0.312L134.162,162.359z"/>
	<path fill="#F26522" d="M140.281,161.841v0.824h-4.516v-7.285h1.004v6.461H140.281z"/>
	<path fill="#F26522" d="M144.332,156.204v5.638h1.469v0.824h-3.941v-0.824h1.468v-5.638h-1.468v-0.824h3.941v0.824H144.332z"/>
	<path fill="#F26522" d="M148.713,163.595c0.146-0.031,0.291-0.063,0.434-0.094s0.275-0.076,0.398-0.135
		c0.123-0.059,0.232-0.133,0.331-0.224c0.098-0.09,0.175-0.214,0.232-0.371c-0.261-0.023-0.451-0.12-0.569-0.289
		c-0.118-0.168-0.178-0.335-0.178-0.5c0-0.314,0.092-0.551,0.275-0.712c0.184-0.161,0.394-0.241,0.63-0.241
		c0.302,0,0.531,0.104,0.686,0.312c0.155,0.208,0.232,0.461,0.232,0.759c0,0.228-0.047,0.465-0.141,0.712s-0.237,0.479-0.429,0.694
		c-0.191,0.216-0.43,0.4-0.715,0.553c-0.286,0.153-0.625,0.253-1.016,0.3L148.713,163.595z"/>
	<path fill="#F26522" d="M162.713,154.673v0.53c0,0.173-0.006,0.371-0.019,0.594s-0.029,0.456-0.049,0.695
		c-0.021,0.239-0.042,0.475-0.068,0.706c-0.024,0.231-0.053,0.438-0.085,0.618h-0.624c-0.033-0.18-0.061-0.386-0.085-0.618
		s-0.047-0.467-0.067-0.706s-0.037-0.473-0.049-0.701c-0.012-0.228-0.019-0.427-0.019-0.6v-0.518H162.713z"/>
	<path fill="#F26522" d="M46.454,171.347v0.53c0,0.173-0.006,0.371-0.019,0.594s-0.029,0.456-0.049,0.695s-0.042,0.475-0.067,0.706
		c-0.024,0.231-0.053,0.438-0.086,0.618h-0.624c-0.033-0.18-0.062-0.386-0.086-0.618s-0.047-0.467-0.067-0.706
		c-0.02-0.239-0.037-0.473-0.049-0.701c-0.012-0.228-0.018-0.427-0.018-0.6v-0.518H46.454z"/>
	<path fill="#F26522" d="M56.819,175.89h2.692v0.918h-2.692V175.89z"/>
	<path fill="#F26522" d="M69.167,180.268c0.147-0.031,0.292-0.063,0.435-0.094c0.143-0.031,0.275-0.076,0.397-0.135
		c0.123-0.059,0.233-0.133,0.331-0.224c0.097-0.09,0.175-0.214,0.232-0.371c-0.261-0.023-0.451-0.12-0.569-0.289
		c-0.119-0.168-0.178-0.335-0.178-0.5c0-0.314,0.092-0.551,0.275-0.712c0.184-0.161,0.394-0.241,0.63-0.241
		c0.302,0,0.53,0.104,0.685,0.312c0.155,0.208,0.233,0.461,0.233,0.759c0,0.228-0.047,0.465-0.141,0.712
		c-0.094,0.247-0.237,0.479-0.429,0.694s-0.43,0.4-0.716,0.553c-0.286,0.153-0.624,0.253-1.016,0.3L69.167,180.268z"/>
	<path fill="#F26522" d="M79.68,180.457h5.922v0.824H79.68V180.457z"/>
	<path fill="#F26522" d="M91.917,180.457h5.923v0.824h-5.923V180.457z"/>
	<path fill="#F26522" d="M104.155,180.457h5.923v0.824h-5.923V180.457z"/>
	<path fill="#F26522" d="M118.119,180.268c0.147-0.031,0.291-0.063,0.434-0.094s0.275-0.076,0.398-0.135
		c0.123-0.059,0.232-0.133,0.331-0.224c0.098-0.09,0.175-0.214,0.232-0.371c-0.261-0.023-0.451-0.12-0.568-0.289
		c-0.119-0.168-0.178-0.335-0.178-0.5c0-0.314,0.092-0.551,0.275-0.712s0.394-0.241,0.63-0.241c0.302,0,0.53,0.104,0.685,0.312
		c0.155,0.208,0.232,0.461,0.232,0.759c0,0.228-0.047,0.465-0.14,0.712c-0.094,0.247-0.237,0.479-0.429,0.694
		c-0.192,0.216-0.431,0.4-0.716,0.553c-0.286,0.153-0.625,0.253-1.016,0.3L118.119,180.268z"/>
	<path fill="#F26522" d="M138.238,171.347v0.53c0,0.173-0.007,0.371-0.019,0.594c-0.013,0.224-0.029,0.456-0.049,0.695
		c-0.021,0.239-0.043,0.475-0.068,0.706c-0.024,0.231-0.053,0.438-0.085,0.618h-0.624c-0.033-0.18-0.061-0.386-0.085-0.618
		s-0.047-0.467-0.067-0.706s-0.037-0.473-0.049-0.701c-0.013-0.228-0.019-0.427-0.019-0.6v-0.518H138.238z"/>
</g>
</svg>
